# xmcd CD database file generated by Grip 3.0.1
# 
# Track frame offsets:
#       183
#       15333
#       26595
#       38520
#       51020
#       64508
#       75683
#       87083
#       100520
#       111808
#       121858
#       135108
#       148820
#       159320
#       178133
#       189008
#       204970
# 
# Disc length: 2874 seconds
# 
# Revision: 1
# Processed by: cddbd v1.4PL0 Copyright (c) Steve Scherf et al.
# Submitted via: Grip 3.0.1
# 
DISCID=c00b3811
DTITLE=Renzo Arbore - Juke box 1
DYEAR=1990
DGENRE=Blues
TTITLE0=Fausto Leali - A chi
TTITLE1=Edoardo Vianello - Abbronzatissima
TTITLE2=Nico Fidenco - Con te sulla spaggia
TTITLE3=Tony Renis - Quando Quando Quando
TTITLE4=Patty Pravo - La Bambola
TTITLE5=I Corvi - Datemi una lacrima per piangere
TTITLE6=Gianni Morandi - Andavo a cento all'ora
TTITLE7=Cocki Mazzetti - Giovane giovane
TTITLE8=Edoardo Vianello - Quarda come dondolo
TTITLE9=Gianni Morandi - Fatti mandare Dalla Mamma
TTITLE10=Rokes - E' la pioggia che va
TTITLE11=Fausto Leali - Angeli Neri
TTITLE12=Giuliano e i notturni - Il ballo di Simone
TTITLE13=Nico Fidenco - Legata a un granello di sabbia
TTITLE14=Robertino - Con un bacio piccolissimo
TTITLE15=Gino Paoli - Sapore di sale
TTITLE16=Piero Focaccia - Stessa Spiaggia stesso mare
EXTD=
EXTT0=
EXTT1=
EXTT2=
EXTT3=
EXTT4=
EXTT5=
EXTT6=
EXTT7=
EXTT8=
EXTT9=
EXTT10=
EXTT11=
EXTT12=
EXTT13=
EXTT14=
EXTT15=
EXTT16=
PLAYORDER=
